<svg width="137" height="16" viewBox="0 0 137 16" fill="none" xmlns="http://www.w3.org/2000/svg">
<path d="M15.22 11.1C14.8333 11.7267 14.4067 12.3 13.94 12.82C13.4733 13.3267 12.9467 13.76 12.36 14.12C11.7867 14.48 11.1467 14.76 10.44 14.96C9.73333 15.16 8.95333 15.26 8.1 15.26C7.03333 15.26 6.03333 15.06 5.1 14.66C4.16667 14.26 3.34667 13.72 2.64 13.04C1.94667 12.36 1.4 11.56 1 10.64C0.6 9.72 0.4 8.74 0.4 7.7C0.4 6.66 0.6 5.68 1 4.76C1.4 3.84 1.94667 3.04 2.64 2.36C3.34667 1.68 4.16667 1.14 5.1 0.739999C6.03333 0.339999 7.03333 0.139999 8.1 0.139999C8.98 0.139999 9.77333 0.239999 10.48 0.439999C11.1867 0.639999 11.8267 0.919999 12.4 1.28C12.9733 1.64 13.4867 2.08 13.94 2.6C14.4067 3.10667 14.8333 3.66667 15.22 4.28C15.2867 4.38667 15.3 4.5 15.26 4.62C15.22 4.74 15.14 4.82667 15.02 4.88L12.18 6C12.0467 6.05333 11.9133 6.05333 11.78 6C11.6467 5.94667 11.5467 5.86667 11.48 5.76C11.0933 5.14667 10.6267 4.68 10.08 4.36C9.53333 4.02667 8.87333 3.86 8.1 3.86C7.59333 3.86 7.11333 3.96667 6.66 4.18C6.22 4.39333 5.83333 4.68 5.5 5.04C5.16667 5.38667 4.90667 5.79333 4.72 6.26C4.53333 6.72667 4.44 7.20667 4.44 7.7C4.44 8.20667 4.53333 8.69333 4.72 9.16C4.90667 9.61333 5.16667 10.0133 5.5 10.36C5.83333 10.7067 6.22 10.9867 6.66 11.2C7.11333 11.4133 7.59333 11.52 8.1 11.52C8.83333 11.52 9.49333 11.3467 10.08 11C10.68 10.64 11.1533 10.18 11.5 9.62C11.5667 9.51333 11.66 9.43333 11.78 9.38C11.9133 9.32667 12.0467 9.32667 12.18 9.38L15.02 10.5C15.14 10.5533 15.22 10.64 15.26 10.76C15.3 10.8667 15.2867 10.98 15.22 11.1ZM19.8045 15H16.8245C16.6912 15 16.5779 14.9533 16.4845 14.86C16.3912 14.7667 16.3445 14.6533 16.3445 14.52V0.84C16.3445 0.706666 16.3912 0.593332 16.4845 0.5C16.5779 0.406666 16.6912 0.359999 16.8245 0.359999H23.0445C23.8179 0.359999 24.5312 0.493333 25.1845 0.76C25.8379 1.01333 26.3912 1.37333 26.8445 1.84C27.3112 2.30667 27.6712 2.86 27.9245 3.5C28.1912 4.14 28.3245 4.84667 28.3245 5.62C28.3245 6.04667 28.2712 6.47333 28.1645 6.9C28.0712 7.31333 27.9312 7.70667 27.7445 8.08C27.5579 8.45333 27.3379 8.79333 27.0845 9.1C26.8312 9.39333 26.5445 9.64 26.2245 9.84C26.1179 9.92 26.0445 10.02 26.0045 10.14C25.9779 10.2467 26.0045 10.3533 26.0845 10.46C26.5912 11.1267 27.1245 11.8133 27.6845 12.52C28.2445 13.2267 28.7445 13.8733 29.1845 14.46C29.2645 14.5667 29.2845 14.6867 29.2445 14.82C29.2045 14.94 29.1179 15 28.9845 15H25.2645C25.1312 15 24.9845 14.9667 24.8245 14.9C24.6779 14.82 24.5645 14.7267 24.4845 14.62C24.0579 14.06 23.6312 13.4933 23.2045 12.92C22.7912 12.3467 22.3779 11.7667 21.9645 11.18C21.8845 11.0733 21.7712 10.9867 21.6245 10.92C21.4779 10.84 21.3379 10.8 21.2045 10.8H20.7645C20.6312 10.8 20.5179 10.8467 20.4245 10.94C20.3312 11.0333 20.2845 11.1467 20.2845 11.28V14.52C20.2845 14.6533 20.2379 14.7667 20.1445 14.86C20.0512 14.9533 19.9379 15 19.8045 15ZM20.7645 7.12H22.8845C23.0445 7.12 23.2112 7.09333 23.3845 7.04C23.5579 6.97333 23.7179 6.88 23.8645 6.76C24.0112 6.62667 24.1312 6.46667 24.2245 6.28C24.3179 6.09333 24.3645 5.87333 24.3645 5.62C24.3645 5.48667 24.3379 5.33333 24.2845 5.16C24.2445 4.97333 24.1645 4.8 24.0445 4.64C23.9379 4.46667 23.7845 4.32667 23.5845 4.22C23.3979 4.1 23.1645 4.04 22.8845 4.04H20.7645C20.6312 4.04 20.5179 4.08667 20.4245 4.18C20.3312 4.27333 20.2845 4.38667 20.2845 4.52V6.64C20.2845 6.77333 20.3312 6.88667 20.4245 6.98C20.5179 7.07333 20.6312 7.12 20.7645 7.12ZM42.2039 0.94L37.2039 9.04C37.1372 9.16 37.0772 9.30667 37.0239 9.48C36.9706 9.65333 36.9439 9.80667 36.9439 9.94V14.52C36.9439 14.6533 36.8972 14.7667 36.8039 14.86C36.7106 14.9533 36.5972 15 36.4639 15H33.4439C33.3106 15 33.1972 14.9533 33.1039 14.86C33.0106 14.7667 32.9639 14.6533 32.9639 14.52V9.96C32.9639 9.82667 32.9372 9.67333 32.8839 9.5C32.8439 9.31333 32.7906 9.16667 32.7239 9.06C31.9239 7.68667 31.1039 6.34 30.2639 5.02C29.4372 3.7 28.6106 2.34 27.7839 0.94C27.7172 0.82 27.7039 0.7 27.7439 0.58C27.7839 0.446666 27.8706 0.38 28.0039 0.38H31.5639C31.6972 0.38 31.8306 0.42 31.9639 0.5C32.1106 0.579999 32.2172 0.679999 32.2839 0.799999L34.7439 5.08C34.8106 5.18667 34.8906 5.24 34.9839 5.24C35.0772 5.24 35.1572 5.18667 35.2239 5.08L37.6639 0.799999C37.7306 0.679999 37.8306 0.579999 37.9639 0.5C38.1106 0.42 38.2506 0.38 38.3839 0.38H41.9839C42.1172 0.38 42.2106 0.426666 42.2639 0.519999C42.3306 0.613333 42.3106 0.753333 42.2039 0.94ZM49.2436 11.06H47.5036C47.3703 11.06 47.2569 11.1067 47.1636 11.2C47.0703 11.2933 47.0236 11.4067 47.0236 11.54V14.52C47.0236 14.6533 46.9769 14.7667 46.8836 14.86C46.7903 14.9533 46.6769 15 46.5436 15H43.5236C43.3903 15 43.2769 14.9533 43.1836 14.86C43.0903 14.7667 43.0436 14.6533 43.0436 14.52V0.84C43.0436 0.706666 43.0903 0.593332 43.1836 0.5C43.2769 0.406666 43.3903 0.359999 43.5236 0.359999H49.6436C50.3903 0.359999 51.0903 0.499999 51.7436 0.779999C52.4103 1.06 52.9836 1.44667 53.4636 1.94C53.9569 2.43333 54.3436 3.00667 54.6236 3.66C54.9169 4.31333 55.0636 5.01333 55.0636 5.76C55.0636 6.50667 54.9436 7.20667 54.7036 7.86C54.4636 8.5 54.0969 9.06 53.6036 9.54C53.1236 10.0067 52.5169 10.38 51.7836 10.66C51.0636 10.9267 50.2169 11.06 49.2436 11.06ZM49.3836 4.04H47.5036C47.3703 4.04 47.2569 4.08667 47.1636 4.18C47.0703 4.27333 47.0236 4.38667 47.0236 4.52V6.88C47.0236 7.01333 47.0703 7.12667 47.1636 7.22C47.2569 7.31333 47.3703 7.36 47.5036 7.36H49.6436C50.1503 7.36 50.5169 7.2 50.7436 6.88C50.9836 6.54667 51.1036 6.17333 51.1036 5.76C51.1036 5.54667 51.0636 5.34 50.9836 5.14C50.9169 4.92667 50.8103 4.74 50.6636 4.58C50.5169 4.42 50.3369 4.29333 50.1236 4.2C49.9103 4.09333 49.6636 4.04 49.3836 4.04ZM66.2086 4.04H63.4086C63.2753 4.04 63.1619 4.08667 63.0686 4.18C62.9753 4.27333 62.9286 4.38667 62.9286 4.52V14.52C62.9286 14.6533 62.8819 14.7667 62.7886 14.86C62.7086 14.9533 62.5953 15 62.4486 15H59.4486C59.3153 15 59.2019 14.9533 59.1086 14.86C59.0153 14.7667 58.9686 14.6533 58.9686 14.52V4.52C58.9686 4.38667 58.9219 4.27333 58.8286 4.18C58.7486 4.08667 58.6353 4.04 58.4886 4.04H55.6486C55.5153 4.04 55.4019 3.99333 55.3086 3.9C55.2153 3.80667 55.1686 3.69333 55.1686 3.56V0.84C55.1686 0.706666 55.2153 0.593332 55.3086 0.5C55.4019 0.406666 55.5153 0.359999 55.6486 0.359999H66.2086C66.3553 0.359999 66.4686 0.406666 66.5486 0.5C66.6419 0.593332 66.6886 0.706666 66.6886 0.84V3.56C66.6886 3.69333 66.6419 3.80667 66.5486 3.9C66.4686 3.99333 66.3553 4.04 66.2086 4.04ZM66.8775 7.68C66.8775 6.64 67.0775 5.66 67.4775 4.74C67.8775 3.82 68.4175 3.02 69.0975 2.34C69.7775 1.64667 70.5775 1.1 71.4975 0.699999C72.4175 0.299999 73.3975 0.0999987 74.4375 0.0999987C75.4775 0.0999987 76.4575 0.299999 77.3775 0.699999C78.2975 1.1 79.0975 1.64667 79.7775 2.34C80.4708 3.02 81.0175 3.82 81.4175 4.74C81.8175 5.66 82.0175 6.64 82.0175 7.68C82.0175 8.72 81.8175 9.7 81.4175 10.62C81.0175 11.54 80.4708 12.3467 79.7775 13.04C79.0975 13.72 78.2975 14.26 77.3775 14.66C76.4575 15.06 75.4775 15.26 74.4375 15.26C73.3975 15.26 72.4175 15.06 71.4975 14.66C70.5775 14.26 69.7775 13.72 69.0975 13.04C68.4175 12.3467 67.8775 11.54 67.4775 10.62C67.0775 9.7 66.8775 8.72 66.8775 7.68ZM70.8375 7.68C70.8375 8.18667 70.9308 8.66667 71.1175 9.12C71.3042 9.57333 71.5575 9.97333 71.8775 10.32C72.2108 10.6667 72.5975 10.9467 73.0375 11.16C73.4775 11.36 73.9442 11.46 74.4375 11.46C74.9308 11.46 75.3975 11.36 75.8375 11.16C76.2775 10.9467 76.6642 10.6667 76.9975 10.32C77.3308 9.97333 77.5908 9.57333 77.7775 9.12C77.9642 8.66667 78.0575 8.18667 78.0575 7.68C78.0575 7.18667 77.9642 6.71333 77.7775 6.26C77.5908 5.79333 77.3308 5.39333 76.9975 5.06C76.6642 4.71333 76.2775 4.44 75.8375 4.24C75.3975 4.02667 74.9308 3.92 74.4375 3.92C73.9442 3.92 73.4775 4.02667 73.0375 4.24C72.5975 4.44 72.2108 4.71333 71.8775 5.06C71.5575 5.39333 71.3042 5.79333 71.1175 6.26C70.9308 6.71333 70.8375 7.18667 70.8375 7.68Z" fill="#99E39E"/>
<path d="M94.6 11.8V14.52C94.6 14.6533 94.5533 14.7667 94.46 14.86C94.3667 14.9533 94.2533 15 94.12 15H84.14C83.9933 15 83.8733 14.9533 83.78 14.86C83.7 14.7667 83.66 14.6533 83.66 14.52V0.84C83.66 0.706666 83.7 0.593332 83.78 0.5C83.8733 0.406666 83.9933 0.359999 84.14 0.359999H87.14C87.2733 0.359999 87.3867 0.406666 87.48 0.5C87.5733 0.593332 87.62 0.706666 87.62 0.84V10.84C87.62 10.9733 87.66 11.0867 87.74 11.18C87.8333 11.2733 87.9533 11.32 88.1 11.32H94.12C94.2533 11.32 94.3667 11.3667 94.46 11.46C94.5533 11.5533 94.6 11.6667 94.6 11.8ZM99.5247 4.52V5.36C99.5247 5.49333 99.5714 5.60667 99.6647 5.7C99.758 5.79333 99.8714 5.84 100.005 5.84H105.425C105.558 5.84 105.671 5.88667 105.765 5.98C105.858 6.07333 105.905 6.18667 105.905 6.32V9.08C105.905 9.21333 105.858 9.32667 105.765 9.42C105.671 9.51333 105.558 9.56 105.425 9.56H100.005C99.8714 9.56 99.758 9.60667 99.6647 9.7C99.5714 9.79333 99.5247 9.90667 99.5247 10.04V10.8C99.5247 10.9333 99.5714 11.0467 99.6647 11.14C99.758 11.2333 99.8714 11.28 100.005 11.28H106.225C106.358 11.28 106.471 11.3267 106.565 11.42C106.658 11.5133 106.705 11.6267 106.705 11.76V14.52C106.705 14.6533 106.658 14.7667 106.565 14.86C106.471 14.9533 106.358 15 106.225 15H96.0447C95.9114 15 95.798 14.9533 95.7047 14.86C95.6114 14.7667 95.5647 14.6533 95.5647 14.52V0.84C95.5647 0.706666 95.6114 0.593332 95.7047 0.5C95.798 0.406666 95.9114 0.359999 96.0447 0.359999H106.225C106.358 0.359999 106.471 0.406666 106.565 0.5C106.658 0.593332 106.705 0.706666 106.705 0.84V3.56C106.705 3.69333 106.658 3.80667 106.565 3.9C106.471 3.99333 106.358 4.04 106.225 4.04H100.005C99.8714 4.04 99.758 4.08667 99.6647 4.18C99.5714 4.27333 99.5247 4.38667 99.5247 4.52ZM122.597 0.84V14.52C122.597 14.6533 122.55 14.7667 122.457 14.86C122.364 14.9533 122.25 15 122.117 15H119.157C119.024 15 118.884 14.96 118.737 14.88C118.59 14.8 118.477 14.7067 118.397 14.6L113.177 7.26C113.097 7.15333 113.01 7.11333 112.917 7.14C112.837 7.15333 112.797 7.22667 112.797 7.36V14.52C112.797 14.6533 112.75 14.7667 112.657 14.86C112.564 14.9533 112.45 15 112.317 15H109.337C109.204 15 109.09 14.9533 108.997 14.86C108.904 14.7667 108.857 14.6533 108.857 14.52V0.84C108.857 0.706666 108.904 0.593332 108.997 0.5C109.09 0.406666 109.204 0.359999 109.337 0.359999H112.337C112.47 0.359999 112.61 0.399999 112.757 0.48C112.904 0.546666 113.017 0.633333 113.097 0.739999L118.297 8.08C118.377 8.18667 118.457 8.23333 118.537 8.22C118.63 8.20667 118.677 8.13333 118.677 8V0.84C118.677 0.706666 118.724 0.593332 118.817 0.5C118.91 0.406666 119.024 0.359999 119.157 0.359999H122.117C122.25 0.359999 122.364 0.406666 122.457 0.5C122.55 0.593332 122.597 0.706666 122.597 0.84ZM126.855 9.98C127.575 10.4467 128.288 10.8133 128.995 11.08C129.702 11.3467 130.362 11.48 130.975 11.48C131.562 11.48 132.008 11.4 132.315 11.24C132.622 11.0667 132.775 10.8133 132.775 10.48C132.775 10.3067 132.708 10.1733 132.575 10.08C132.442 9.97333 132.262 9.88667 132.035 9.82C131.822 9.75333 131.568 9.7 131.275 9.66C130.982 9.62 130.682 9.56667 130.375 9.5C130.082 9.44667 129.735 9.38667 129.335 9.32C128.948 9.24 128.548 9.13333 128.135 9C127.722 8.85333 127.308 8.67333 126.895 8.46C126.495 8.24667 126.135 7.97333 125.815 7.64C125.495 7.30667 125.235 6.91333 125.035 6.46C124.848 5.99333 124.755 5.44667 124.755 4.82C124.755 3.9 124.935 3.14 125.295 2.54C125.655 1.94 126.108 1.46667 126.655 1.12C127.215 0.76 127.835 0.513333 128.515 0.38C129.195 0.233333 129.855 0.159999 130.495 0.159999C131.615 0.159999 132.615 0.326666 133.495 0.66C134.388 0.98 135.242 1.45333 136.055 2.08C136.162 2.17333 136.222 2.28667 136.235 2.42C136.248 2.55333 136.215 2.67333 136.135 2.78L134.575 5C134.495 5.10667 134.388 5.17333 134.255 5.2C134.122 5.22667 134.002 5.2 133.895 5.12C133.215 4.69333 132.582 4.39333 131.995 4.22C131.408 4.03333 130.868 3.94 130.375 3.94C130.228 3.94 130.055 3.94667 129.855 3.96C129.668 3.96 129.488 3.98667 129.315 4.04C129.142 4.08 128.995 4.15333 128.875 4.26C128.768 4.36667 128.715 4.51333 128.715 4.7C128.715 4.88667 128.855 5.05333 129.135 5.2C129.415 5.34667 129.735 5.47333 130.095 5.58C130.455 5.68667 130.802 5.77333 131.135 5.84C131.468 5.89333 131.682 5.92667 131.775 5.94C132.255 6.03333 132.782 6.17333 133.355 6.36C133.928 6.53333 134.462 6.8 134.955 7.16C135.462 7.50667 135.882 7.96667 136.215 8.54C136.562 9.1 136.735 9.80667 136.735 10.66C136.735 11.46 136.595 12.1533 136.315 12.74C136.035 13.3133 135.642 13.7867 135.135 14.16C134.642 14.5333 134.042 14.8133 133.335 15C132.642 15.1733 131.868 15.26 131.015 15.26C130.322 15.26 129.675 15.2 129.075 15.08C128.475 14.9733 127.915 14.82 127.395 14.62C126.875 14.42 126.388 14.1867 125.935 13.92C125.495 13.64 125.088 13.3467 124.715 13.04C124.608 12.96 124.548 12.8533 124.535 12.72C124.522 12.5733 124.555 12.4467 124.635 12.34L126.175 10.12C126.255 10.0133 126.362 9.94667 126.495 9.92C126.628 9.89333 126.748 9.91333 126.855 9.98Z" fill="white"/>
</svg>
