<svg width="137" height="16" viewBox="0 0 137 16" fill="none" xmlns="http://www.w3.org/2000/svg">
<path d="M126.855 9.97997C127.575 10.4466 128.288 10.8133 128.995 11.08C129.702 11.3466 130.362 11.48 130.975 11.48C131.562 11.48 132.008 11.4 132.315 11.24C132.622 11.0666 132.775 10.8133 132.775 10.48C132.775 10.3066 132.708 10.1733 132.575 10.08C132.442 9.97331 132.262 9.88664 132.035 9.81997C131.822 9.75331 131.568 9.69997 131.275 9.65997C130.982 9.61997 130.682 9.56664 130.375 9.49997C130.082 9.44664 129.735 9.38664 129.335 9.31997C128.948 9.23997 128.548 9.13331 128.135 8.99997C127.722 8.85331 127.308 8.67331 126.895 8.45997C126.495 8.24664 126.135 7.97331 125.815 7.63997C125.495 7.30664 125.235 6.91331 125.035 6.45997C124.848 5.99331 124.755 5.44664 124.755 4.81997C124.755 3.89997 124.935 3.13997 125.295 2.53997C125.655 1.93997 126.108 1.46664 126.655 1.11997C127.215 0.759972 127.835 0.513306 128.515 0.379972C129.195 0.233305 129.855 0.159973 130.495 0.159973C131.615 0.159973 132.615 0.326639 133.495 0.659973C134.388 0.979973 135.242 1.45331 136.055 2.07997C136.162 2.17331 136.222 2.28664 136.235 2.41997C136.248 2.55331 136.215 2.67331 136.135 2.77997L134.575 4.99997C134.495 5.10664 134.388 5.17331 134.255 5.19997C134.122 5.22664 134.002 5.19997 133.895 5.11997C133.215 4.69331 132.582 4.39331 131.995 4.21997C131.408 4.03331 130.868 3.93997 130.375 3.93997C130.228 3.93997 130.055 3.94664 129.855 3.95997C129.668 3.95997 129.488 3.98664 129.315 4.03997C129.142 4.07997 128.995 4.15331 128.875 4.25997C128.768 4.36664 128.715 4.51331 128.715 4.69997C128.715 4.88664 128.855 5.05331 129.135 5.19997C129.415 5.34664 129.735 5.47331 130.095 5.57997C130.455 5.68664 130.802 5.77331 131.135 5.83997C131.468 5.89331 131.682 5.92664 131.775 5.93997C132.255 6.03331 132.782 6.17331 133.355 6.35997C133.928 6.53331 134.462 6.79997 134.955 7.15997C135.462 7.50664 135.882 7.96664 136.215 8.53997C136.562 9.09997 136.735 9.80664 136.735 10.66C136.735 11.46 136.595 12.1533 136.315 12.74C136.035 13.3133 135.642 13.7866 135.135 14.16C134.642 14.5333 134.042 14.8133 133.335 15C132.642 15.1733 131.868 15.26 131.015 15.26C130.322 15.26 129.675 15.2 129.075 15.08C128.475 14.9733 127.915 14.82 127.395 14.62C126.875 14.42 126.388 14.1866 125.935 13.92C125.495 13.64 125.088 13.3466 124.715 13.04C124.608 12.96 124.548 12.8533 124.535 12.72C124.522 12.5733 124.555 12.4466 124.635 12.34L126.175 10.12C126.255 10.0133 126.362 9.94664 126.495 9.91997C126.628 9.89331 126.748 9.91331 126.855 9.97997Z" fill="#4E4E4E"/>
<path d="M122.597 0.839987V14.52C122.597 14.6533 122.55 14.7667 122.457 14.86C122.364 14.9533 122.25 15 122.117 15H119.157C119.024 15 118.884 14.96 118.737 14.88C118.59 14.8 118.477 14.7067 118.397 14.6L113.177 7.25999C113.097 7.15332 113.01 7.11332 112.917 7.13999C112.837 7.15332 112.797 7.22665 112.797 7.35999V14.52C112.797 14.6533 112.75 14.7667 112.657 14.86C112.564 14.9533 112.45 15 112.317 15H109.337C109.204 15 109.09 14.9533 108.997 14.86C108.904 14.7667 108.857 14.6533 108.857 14.52V0.839987C108.857 0.706653 108.904 0.59332 108.997 0.499987C109.09 0.406653 109.204 0.359985 109.337 0.359985H112.337C112.47 0.359985 112.61 0.399986 112.757 0.479986C112.904 0.546653 113.017 0.633318 113.097 0.739985L118.297 8.07999C118.377 8.18665 118.457 8.23332 118.537 8.21999C118.63 8.20665 118.677 8.13332 118.677 7.99999V0.839987C118.677 0.706653 118.724 0.59332 118.817 0.499987C118.91 0.406653 119.024 0.359985 119.157 0.359985H122.117C122.25 0.359985 122.364 0.406653 122.457 0.499987C122.55 0.59332 122.597 0.706653 122.597 0.839987Z" fill="#4E4E4E"/>
<path d="M99.5247 4.51999V5.35999C99.5247 5.49332 99.5714 5.60665 99.6647 5.69999C99.758 5.79332 99.8714 5.83999 100.005 5.83999H105.425C105.558 5.83999 105.671 5.88665 105.765 5.97999C105.858 6.07332 105.905 6.18665 105.905 6.31999V9.07999C105.905 9.21332 105.858 9.32665 105.765 9.41999C105.671 9.51332 105.558 9.55999 105.425 9.55999H100.005C99.8714 9.55999 99.758 9.60665 99.6647 9.69999C99.5714 9.79332 99.5247 9.90665 99.5247 10.04V10.8C99.5247 10.9333 99.5714 11.0467 99.6647 11.14C99.758 11.2333 99.8714 11.28 100.005 11.28H106.225C106.358 11.28 106.471 11.3267 106.565 11.42C106.658 11.5133 106.705 11.6267 106.705 11.76V14.52C106.705 14.6533 106.658 14.7667 106.565 14.86C106.471 14.9533 106.358 15 106.225 15H96.0447C95.9114 15 95.798 14.9533 95.7047 14.86C95.6114 14.7667 95.5647 14.6533 95.5647 14.52V0.839987C95.5647 0.706653 95.6114 0.59332 95.7047 0.499987C95.798 0.406653 95.9114 0.359985 96.0447 0.359985H106.225C106.358 0.359985 106.471 0.406653 106.565 0.499987C106.658 0.59332 106.705 0.706653 106.705 0.839987V3.55999C106.705 3.69332 106.658 3.80665 106.565 3.89999C106.471 3.99332 106.358 4.03999 106.225 4.03999H100.005C99.8714 4.03999 99.758 4.08665 99.6647 4.17999C99.5714 4.27332 99.5247 4.38665 99.5247 4.51999Z" fill="#4E4E4E"/>
<path d="M94.6 11.8V14.52C94.6 14.6533 94.5534 14.7667 94.46 14.86C94.3667 14.9533 94.2534 15 94.12 15H84.14C83.9934 15 83.8734 14.9533 83.78 14.86C83.7 14.7667 83.66 14.6533 83.66 14.52V0.839987C83.66 0.706653 83.7 0.59332 83.78 0.499987C83.8734 0.406653 83.9934 0.359985 84.14 0.359985H87.14C87.2734 0.359985 87.3867 0.406653 87.48 0.499987C87.5734 0.59332 87.62 0.706653 87.62 0.839987V10.84C87.62 10.9733 87.66 11.0867 87.74 11.18C87.8334 11.2733 87.9534 11.32 88.1 11.32H94.12C94.2534 11.32 94.3667 11.3667 94.46 11.46C94.5534 11.5533 94.6 11.6667 94.6 11.8Z" fill="#4E4E4E"/>
<path d="M66.8775 7.67998C66.8775 6.63998 67.0775 5.65998 67.4775 4.73998C67.8775 3.81998 68.4175 3.01998 69.0975 2.33998C69.7775 1.64664 70.5775 1.09998 71.4975 0.699976C72.4175 0.299976 73.3975 0.0999756 74.4375 0.0999756C75.4775 0.0999756 76.4575 0.299976 77.3775 0.699976C78.2975 1.09998 79.0975 1.64664 79.7775 2.33998C80.4708 3.01998 81.0175 3.81998 81.4175 4.73998C81.8175 5.65998 82.0175 6.63998 82.0175 7.67998C82.0175 8.71998 81.8175 9.69998 81.4175 10.62C81.0175 11.54 80.4708 12.3466 79.7775 13.04C79.0975 13.72 78.2975 14.26 77.3775 14.66C76.4575 15.06 75.4775 15.26 74.4375 15.26C73.3975 15.26 72.4175 15.06 71.4975 14.66C70.5775 14.26 69.7775 13.72 69.0975 13.04C68.4175 12.3466 67.8775 11.54 67.4775 10.62C67.0775 9.69998 66.8775 8.71998 66.8775 7.67998ZM70.8375 7.67998C70.8375 8.18664 70.9308 8.66664 71.1175 9.11998C71.3042 9.57331 71.5575 9.97331 71.8775 10.32C72.2108 10.6666 72.5975 10.9466 73.0375 11.16C73.4775 11.36 73.9442 11.46 74.4375 11.46C74.9308 11.46 75.3975 11.36 75.8375 11.16C76.2775 10.9466 76.6642 10.6666 76.9975 10.32C77.3308 9.97331 77.5908 9.57331 77.7775 9.11998C77.9642 8.66664 78.0575 8.18664 78.0575 7.67998C78.0575 7.18664 77.9642 6.71331 77.7775 6.25998C77.5908 5.79331 77.3308 5.39331 76.9975 5.05998C76.6642 4.71331 76.2775 4.43998 75.8375 4.23998C75.3975 4.02664 74.9308 3.91998 74.4375 3.91998C73.9442 3.91998 73.4775 4.02664 73.0375 4.23998C72.5975 4.43998 72.2108 4.71331 71.8775 5.05998C71.5575 5.39331 71.3042 5.79331 71.1175 6.25998C70.9308 6.71331 70.8375 7.18664 70.8375 7.67998Z" fill="#99E39E"/>
<path d="M66.2086 4.03999H63.4086C63.2752 4.03999 63.1619 4.08665 63.0686 4.17999C62.9752 4.27332 62.9286 4.38665 62.9286 4.51999V14.52C62.9286 14.6533 62.8819 14.7667 62.7886 14.86C62.7086 14.9533 62.5952 15 62.4486 15H59.4486C59.3152 15 59.2019 14.9533 59.1086 14.86C59.0152 14.7667 58.9686 14.6533 58.9686 14.52V4.51999C58.9686 4.38665 58.9219 4.27332 58.8286 4.17999C58.7486 4.08665 58.6352 4.03999 58.4886 4.03999H55.6486C55.5152 4.03999 55.4019 3.99332 55.3086 3.89999C55.2152 3.80665 55.1686 3.69332 55.1686 3.55999V0.839987C55.1686 0.706653 55.2152 0.59332 55.3086 0.499987C55.4019 0.406653 55.5152 0.359985 55.6486 0.359985H66.2086C66.3552 0.359985 66.4686 0.406653 66.5486 0.499987C66.6419 0.59332 66.6886 0.706653 66.6886 0.839987V3.55999C66.6886 3.69332 66.6419 3.80665 66.5486 3.89999C66.4686 3.99332 66.3552 4.03999 66.2086 4.03999Z" fill="#99E39E"/>
<path d="M49.2436 11.06H47.5036C47.3702 11.06 47.2569 11.1067 47.1636 11.2C47.0702 11.2933 47.0236 11.4067 47.0236 11.54V14.52C47.0236 14.6533 46.9769 14.7667 46.8836 14.86C46.7902 14.9533 46.6769 15 46.5436 15H43.5236C43.3902 15 43.2769 14.9533 43.1836 14.86C43.0902 14.7667 43.0436 14.6533 43.0436 14.52V0.839987C43.0436 0.706653 43.0902 0.59332 43.1836 0.499987C43.2769 0.406653 43.3902 0.359985 43.5236 0.359985H49.6436C50.3902 0.359985 51.0902 0.499985 51.7436 0.779985C52.4102 1.05999 52.9836 1.44665 53.4636 1.93999C53.9569 2.43332 54.3436 3.00665 54.6236 3.65999C54.9169 4.31332 55.0636 5.01332 55.0636 5.75999C55.0636 6.50665 54.9436 7.20665 54.7036 7.85999C54.4636 8.49999 54.0969 9.05999 53.6036 9.53999C53.1236 10.0067 52.5169 10.38 51.7836 10.66C51.0636 10.9267 50.2169 11.06 49.2436 11.06ZM49.3836 4.03999H47.5036C47.3702 4.03999 47.2569 4.08665 47.1636 4.17999C47.0702 4.27332 47.0236 4.38665 47.0236 4.51999V6.87999C47.0236 7.01332 47.0702 7.12665 47.1636 7.21999C47.2569 7.31332 47.3702 7.35999 47.5036 7.35999H49.6436C50.1502 7.35999 50.5169 7.19999 50.7436 6.87999C50.9836 6.54665 51.1036 6.17332 51.1036 5.75999C51.1036 5.54665 51.0636 5.33999 50.9836 5.13999C50.9169 4.92665 50.8102 4.73999 50.6636 4.57999C50.5169 4.41999 50.3369 4.29332 50.1236 4.19999C49.9102 4.09332 49.6636 4.03999 49.3836 4.03999Z" fill="#99E39E"/>
<path d="M42.2039 0.940006L37.2039 9.04C37.1373 9.16 37.0773 9.30667 37.0239 9.48001C36.9706 9.65334 36.9439 9.80667 36.9439 9.94V14.52C36.9439 14.6533 36.8973 14.7667 36.8039 14.86C36.7106 14.9533 36.5973 15 36.4639 15H33.4439C33.3106 15 33.1973 14.9533 33.1039 14.86C33.0106 14.7667 32.9639 14.6533 32.9639 14.52V9.96C32.9639 9.82667 32.9373 9.67334 32.8839 9.50001C32.8439 9.31334 32.7906 9.16667 32.7239 9.06001C31.9239 7.68667 31.1039 6.34001 30.2639 5.02001C29.4373 3.70001 28.6106 2.34001 27.7839 0.940006C27.7173 0.820006 27.7039 0.700006 27.7439 0.580006C27.7839 0.446672 27.8706 0.380005 28.0039 0.380005H31.5639C31.6973 0.380005 31.8306 0.420006 31.9639 0.500006C32.1106 0.580005 32.2173 0.680005 32.2839 0.800005L34.7439 5.08001C34.8106 5.18667 34.8906 5.24001 34.9839 5.24001C35.0773 5.24001 35.1573 5.18667 35.2239 5.08001L37.6639 0.800005C37.7306 0.680005 37.8306 0.580005 37.9639 0.500006C38.1106 0.420006 38.2506 0.380005 38.3839 0.380005H41.9839C42.1173 0.380005 42.2106 0.426671 42.2639 0.520004C42.3306 0.613338 42.3106 0.75334 42.2039 0.940006Z" fill="#99E39E"/>
<path d="M19.8045 15H16.8245C16.6912 15 16.5779 14.9533 16.4845 14.86C16.3912 14.7667 16.3445 14.6533 16.3445 14.52V0.839987C16.3445 0.706653 16.3912 0.59332 16.4845 0.499987C16.5779 0.406653 16.6912 0.359985 16.8245 0.359985H23.0445C23.8179 0.359985 24.5312 0.49332 25.1845 0.759987C25.8379 1.01332 26.3912 1.37332 26.8445 1.83998C27.3112 2.30665 27.6712 2.85999 27.9245 3.49999C28.1912 4.13999 28.3245 4.84665 28.3245 5.61999C28.3245 6.04665 28.2712 6.47332 28.1645 6.89999C28.0712 7.31332 27.9312 7.70665 27.7445 8.07999C27.5579 8.45332 27.3379 8.79332 27.0845 9.09999C26.8312 9.39332 26.5445 9.63999 26.2245 9.83999C26.1179 9.91999 26.0445 10.02 26.0045 10.14C25.9779 10.2467 26.0045 10.3533 26.0845 10.46C26.5912 11.1267 27.1245 11.8133 27.6845 12.52C28.2445 13.2267 28.7445 13.8733 29.1845 14.46C29.2645 14.5667 29.2845 14.6867 29.2445 14.82C29.2045 14.94 29.1179 15 28.9845 15H25.2645C25.1312 15 24.9845 14.9667 24.8245 14.9C24.6779 14.82 24.5645 14.7267 24.4845 14.62C24.0579 14.06 23.6312 13.4933 23.2045 12.92C22.7912 12.3467 22.3779 11.7667 21.9645 11.18C21.8845 11.0733 21.7712 10.9867 21.6245 10.92C21.4779 10.84 21.3379 10.8 21.2045 10.8H20.7645C20.6312 10.8 20.5179 10.8467 20.4245 10.94C20.3312 11.0333 20.2845 11.1467 20.2845 11.28V14.52C20.2845 14.6533 20.2379 14.7667 20.1445 14.86C20.0512 14.9533 19.9379 15 19.8045 15ZM20.7645 7.11999H22.8845C23.0445 7.11999 23.2112 7.09332 23.3845 7.03999C23.5579 6.97332 23.7179 6.87999 23.8645 6.75999C24.0112 6.62665 24.1312 6.46665 24.2245 6.27999C24.3179 6.09332 24.3645 5.87332 24.3645 5.61999C24.3645 5.48665 24.3379 5.33332 24.2845 5.15999C24.2445 4.97332 24.1645 4.79999 24.0445 4.63999C23.9379 4.46665 23.7845 4.32665 23.5845 4.21999C23.3979 4.09999 23.1645 4.03999 22.8845 4.03999H20.7645C20.6312 4.03999 20.5179 4.08665 20.4245 4.17999C20.3312 4.27332 20.2845 4.38665 20.2845 4.51999V6.63999C20.2845 6.77332 20.3312 6.88665 20.4245 6.97999C20.5179 7.07332 20.6312 7.11999 20.7645 7.11999Z" fill="#99E39E"/>
<path d="M15.22 11.1C14.8334 11.7267 14.4067 12.3 13.94 12.82C13.4734 13.3267 12.9467 13.76 12.36 14.12C11.7867 14.48 11.1467 14.76 10.44 14.96C9.73336 15.16 8.95336 15.26 8.10002 15.26C7.03336 15.26 6.03336 15.06 5.10002 14.66C4.16669 14.26 3.34669 13.72 2.64002 13.04C1.94669 12.36 1.40002 11.56 1.00002 10.64C0.600024 9.72001 0.400024 8.74002 0.400024 7.70002C0.400024 6.66002 0.600024 5.68002 1.00002 4.76002C1.40002 3.84002 1.94669 3.04001 2.64002 2.36001C3.34669 1.68001 4.16669 1.14001 5.10002 0.740013C6.03336 0.340014 7.03336 0.140015 8.10002 0.140015C8.98002 0.140015 9.77336 0.240014 10.48 0.440014C11.1867 0.640014 11.8267 0.920014 12.4 1.28001C12.9734 1.64001 13.4867 2.08002 13.94 2.60002C14.4067 3.10668 14.8334 3.66668 15.22 4.28001C15.2867 4.38668 15.3 4.50001 15.26 4.62001C15.22 4.74001 15.14 4.82668 15.02 4.88001L12.18 6.00002C12.0467 6.05335 11.9134 6.05335 11.78 6.00002C11.6467 5.94668 11.5467 5.86668 11.48 5.76002C11.0934 5.14668 10.6267 4.68002 10.08 4.36002C9.53336 4.02668 8.87336 3.86001 8.10002 3.86001C7.59336 3.86001 7.11336 3.96668 6.66002 4.18002C6.22002 4.39335 5.83336 4.68001 5.50002 5.04001C5.16669 5.38668 4.90669 5.79335 4.72002 6.26002C4.53336 6.72668 4.44002 7.20668 4.44002 7.70002C4.44002 8.20668 4.53336 8.69335 4.72002 9.16002C4.90669 9.61335 5.16669 10.0133 5.50002 10.36C5.83336 10.7067 6.22002 10.9867 6.66002 11.2C7.11336 11.4133 7.59336 11.52 8.10002 11.52C8.83336 11.52 9.49336 11.3467 10.08 11C10.68 10.64 11.1534 10.18 11.5 9.62001C11.5667 9.51335 11.66 9.43335 11.78 9.38001C11.9134 9.32668 12.0467 9.32668 12.18 9.38001L15.02 10.5C15.14 10.5533 15.22 10.64 15.26 10.76C15.3 10.8667 15.2867 10.98 15.22 11.1Z" fill="#99E39E"/>
</svg>
