<svg width="40" height="40" viewBox="0 0 40 40" fill="none" xmlns="http://www.w3.org/2000/svg">
<g clip-path="url(#clip0_47_30)">
<rect width="40" height="40" rx="20" fill="#99E39E"/>
<path d="M28.79 17.525C29.1825 14.905 27.1863 13.4963 24.4588 12.5563L25.3437 9.00625L23.1838 8.46875L22.3213 11.925C21.7538 11.7825 21.1713 11.65 20.59 11.5175L21.4587 8.03875L19.2988 7.5L18.4137 11.0487C17.9437 10.9412 17.4813 10.8363 17.0338 10.7238L17.0363 10.7125L14.0563 9.96875L13.4813 12.2763C13.4813 12.2763 15.085 12.6438 15.0513 12.6663C15.9263 12.885 16.0838 13.4637 16.0575 13.9237L15.05 17.9675C15.11 17.9825 15.1875 18.005 15.275 18.0387L15.0463 17.9825L13.6338 23.6475C13.5263 23.9125 13.255 24.3112 12.6425 24.16C12.665 24.1912 11.0725 23.7687 11.0725 23.7687L10 26.2413L12.8125 26.9425C13.335 27.0738 13.8475 27.2112 14.3512 27.34L13.4575 30.93L15.6163 31.4675L16.5013 27.9175C17.0913 28.0762 17.6638 28.2237 18.2238 28.3637L17.3413 31.8987L19.5013 32.4362L20.395 28.8538C24.08 29.5513 26.85 29.27 28.0163 25.9375C28.9563 23.255 27.97 21.7063 26.0313 20.6975C27.4438 20.3725 28.5062 19.4438 28.79 17.525V17.525ZM23.8525 24.4475C23.1863 27.1313 18.6675 25.68 17.2025 25.3163L18.39 20.56C19.855 20.9262 24.5513 21.65 23.8525 24.4475ZM24.5213 17.4863C23.9125 19.9275 20.1525 18.6863 18.9338 18.3825L20.0087 14.07C21.2275 14.3737 25.1563 14.94 24.5213 17.4863Z" fill="white"/>
</g>
<defs>
<clipPath id="clip0_47_30">
<rect width="40" height="40" fill="white"/>
</clipPath>
</defs>
</svg>
